<svg width="784" height="223" viewBox="0 0 784 223" fill="none" xmlns="http://www.w3.org/2000/svg">
<path d="M74.2937 159.366L1.50732e-05 26.1597L61.5695 25.2722L91.8045 142.903L74.2937 159.366Z" fill="white"/>
<path d="M178.365 92.152L99.8877 223L68.1606 170.552L155.245 85.3922L178.365 92.152Z" fill="white"/>
<path d="M68.9497 37.5928L223 38.0709L193.604 91.6474L74.9053 60.6929L68.9497 37.5928Z" fill="white"/>
<path d="M95.5976 137.093L77.5993 65.815L148.466 85.7315L95.5976 137.093Z" fill="white"/>
<mask id="path-5-outside-1_13_6" maskUnits="userSpaceOnUse" x="239" y="87.7115" width="528" height="95" fill="black">
<rect fill="white" x="239" y="87.7115" width="528" height="95"/>
<path d="M294.035 157.902C288.531 159.882 282.176 160.871 274.97 160.871C267.889 160.871 261.781 159.526 256.647 156.836C251.514 154.114 247.587 150.264 244.865 145.285C242.175 140.276 240.83 134.508 240.83 127.983C240.83 120.963 242.345 114.716 245.375 109.243C248.406 103.769 252.689 99.548 258.225 96.5792C263.76 93.5795 270.131 92.0797 277.336 92.0797C283.088 92.0797 288.654 92.7755 294.035 94.1671V112.675C292.18 111.562 289.969 110.696 287.402 110.078C284.835 109.459 282.237 109.15 279.609 109.15C274.166 109.15 269.868 110.712 266.713 113.835C263.59 116.958 262.028 121.195 262.028 126.545C262.028 131.864 263.59 136.07 266.713 139.162C269.868 142.224 274.073 143.755 279.331 143.755C284.186 143.755 289.087 142.518 294.035 140.044V157.902ZM305.42 159.712V89.3893H325.181V159.712H305.42ZM354.611 141.574C354.951 143.615 356.126 145.223 358.136 146.399C360.146 147.543 362.806 148.115 366.115 148.115C370.722 148.115 375.083 147.234 379.196 145.471V157.995C374.402 159.913 368.589 160.871 361.754 160.871C353.466 160.871 347.019 158.753 342.411 154.516C337.803 150.28 335.499 144.45 335.499 137.028C335.499 131.926 336.504 127.426 338.514 123.53C340.555 119.633 343.555 116.587 347.513 114.392C351.503 112.165 355.894 111.052 360.687 111.052C365.604 111.052 369.81 112.011 373.304 113.928C376.799 115.845 379.443 118.536 381.237 121.999C383.061 125.463 383.973 129.514 383.973 134.152V141.574H354.611ZM366.486 131.23C366.486 125.756 364.522 123.02 360.595 123.02C358.956 123.02 357.579 123.777 356.466 125.293C355.353 126.777 354.703 128.756 354.518 131.23H366.486ZM428.293 159.712H404.821L388.957 112.212H409.553L415.351 138.142C416.279 142.317 416.789 145.455 416.882 147.558H417.16C417.222 146.94 417.3 146.306 417.392 145.656C417.516 145.007 419.82 133.859 424.304 112.212H444.807L428.293 159.712ZM469.412 141.574C469.752 143.615 470.928 145.223 472.938 146.399C474.948 147.543 477.607 148.115 480.916 148.115C485.524 148.115 489.884 147.234 493.997 145.471V157.995C489.204 159.913 483.39 160.871 476.556 160.871C468.268 160.871 461.82 158.753 457.212 154.516C452.605 150.28 450.301 144.45 450.301 137.028C450.301 131.926 451.306 127.426 453.316 123.53C455.357 119.633 458.357 116.587 462.315 114.392C466.304 112.165 470.696 111.052 475.489 111.052C480.406 111.052 484.612 112.011 488.106 113.928C491.601 115.845 494.245 118.536 496.038 121.999C497.863 125.463 498.775 129.514 498.775 134.152V141.574H469.412ZM481.287 131.23C481.287 125.756 479.323 123.02 475.396 123.02C473.757 123.02 472.381 123.777 471.268 125.293C470.154 126.777 469.505 128.756 469.319 131.23H481.287ZM544.208 129.143C543.466 128.803 542.461 128.493 541.193 128.215C539.925 127.937 538.874 127.797 538.039 127.797C531.514 127.797 528.251 131.57 528.251 139.116V159.712H508.49V112.212H528.251V120.561H528.437C529.643 117.561 531.359 115.289 533.585 113.742C535.812 112.165 538.41 111.377 541.378 111.377C542.461 111.377 543.404 111.562 544.208 111.933V129.143ZM606.387 134.524C606.387 139.719 605.505 144.311 603.743 148.3C601.98 152.29 599.49 155.382 596.274 157.578C593.058 159.773 589.44 160.871 585.42 160.871C579.853 160.871 575.632 158.846 572.756 154.795H572.571V181.56H552.81V112.212H572.571V118.659H572.756C574.333 116.278 576.374 114.423 578.879 113.093C581.384 111.732 584.229 111.052 587.414 111.052C593.538 111.052 598.223 113.093 601.47 117.175C604.748 121.257 606.387 127.04 606.387 134.524ZM586.348 135.127C586.348 132.127 585.76 129.777 584.585 128.076C583.441 126.375 581.663 125.525 579.25 125.525C577.148 125.525 575.447 126.421 574.148 128.215C572.849 130.009 572.2 132.467 572.2 135.59V136.518C572.2 139.518 572.756 141.915 573.87 143.708C574.983 145.502 576.653 146.399 578.879 146.399C581.26 146.399 583.1 145.424 584.399 143.476C585.698 141.497 586.348 138.714 586.348 135.127ZM643.053 159.712V152.475H642.867C639.713 158.073 634.888 160.871 628.394 160.871C623.91 160.871 620.4 159.541 617.865 156.882C615.329 154.222 614.061 150.666 614.061 146.213C614.061 136.874 619.797 131.462 631.27 129.978L643.053 128.447C643.053 126.901 642.357 125.633 640.965 124.643C639.574 123.654 637.703 123.159 635.352 123.159C630.033 123.159 624.421 124.674 618.514 127.705V114.856C621.081 113.742 624.297 112.83 628.162 112.119C632.028 111.408 635.337 111.052 638.089 111.052C646.16 111.052 652.005 112.784 655.623 116.247C659.272 119.68 661.097 125.432 661.097 133.503V159.712H643.053ZM631.363 143.569C631.363 144.868 631.765 145.935 632.569 146.77C633.404 147.605 634.579 148.022 636.095 148.022C638.166 148.022 639.836 147.249 641.104 145.703C642.403 144.157 643.053 142.177 643.053 139.765V137.956L636.373 138.884C633.033 139.441 631.363 141.002 631.363 143.569ZM706.344 159.062C705.448 159.495 703.979 159.897 701.938 160.268C699.897 160.67 697.438 160.871 694.562 160.871C689.058 160.871 684.744 159.356 681.62 156.325C678.528 153.295 676.982 148.981 676.982 143.383V125.896H669.513V112.212H676.982V102.888L696.464 97.507V112.212H706.344V125.896H696.464V140.136C696.464 144.311 698.119 146.399 701.427 146.399C702.974 146.399 704.613 146.058 706.344 145.378V159.062ZM745.979 159.712V132.622C745.979 127.89 744.17 125.525 740.552 125.525C738.789 125.525 737.444 126.205 736.516 127.566C735.588 128.895 735.125 130.612 735.125 132.714V159.712H715.364V89.3893H735.125V118.659H735.31C737.011 116.216 739.067 114.345 741.48 113.047C743.923 111.717 746.536 111.052 749.319 111.052C754.452 111.052 758.364 112.706 761.055 116.015C763.745 119.293 765.09 124.133 765.09 130.534V159.712H745.979Z"/>
</mask>
<path d="M294.035 157.902C288.531 159.882 282.176 160.871 274.97 160.871C267.889 160.871 261.781 159.526 256.647 156.836C251.514 154.114 247.587 150.264 244.865 145.285C242.175 140.276 240.83 134.508 240.83 127.983C240.83 120.963 242.345 114.716 245.375 109.243C248.406 103.769 252.689 99.548 258.225 96.5792C263.76 93.5795 270.131 92.0797 277.336 92.0797C283.088 92.0797 288.654 92.7755 294.035 94.1671V112.675C292.18 111.562 289.969 110.696 287.402 110.078C284.835 109.459 282.237 109.15 279.609 109.15C274.166 109.15 269.868 110.712 266.713 113.835C263.59 116.958 262.028 121.195 262.028 126.545C262.028 131.864 263.59 136.07 266.713 139.162C269.868 142.224 274.073 143.755 279.331 143.755C284.186 143.755 289.087 142.518 294.035 140.044V157.902ZM305.42 159.712V89.3893H325.181V159.712H305.42ZM354.611 141.574C354.951 143.615 356.126 145.223 358.136 146.399C360.146 147.543 362.806 148.115 366.115 148.115C370.722 148.115 375.083 147.234 379.196 145.471V157.995C374.402 159.913 368.589 160.871 361.754 160.871C353.466 160.871 347.019 158.753 342.411 154.516C337.803 150.28 335.499 144.45 335.499 137.028C335.499 131.926 336.504 127.426 338.514 123.53C340.555 119.633 343.555 116.587 347.513 114.392C351.503 112.165 355.894 111.052 360.687 111.052C365.604 111.052 369.81 112.011 373.304 113.928C376.799 115.845 379.443 118.536 381.237 121.999C383.061 125.463 383.973 129.514 383.973 134.152V141.574H354.611ZM366.486 131.23C366.486 125.756 364.522 123.02 360.595 123.02C358.956 123.02 357.579 123.777 356.466 125.293C355.353 126.777 354.703 128.756 354.518 131.23H366.486ZM428.293 159.712H404.821L388.957 112.212H409.553L415.351 138.142C416.279 142.317 416.789 145.455 416.882 147.558H417.16C417.222 146.94 417.3 146.306 417.392 145.656C417.516 145.007 419.82 133.859 424.304 112.212H444.807L428.293 159.712ZM469.412 141.574C469.752 143.615 470.928 145.223 472.938 146.399C474.948 147.543 477.607 148.115 480.916 148.115C485.524 148.115 489.884 147.234 493.997 145.471V157.995C489.204 159.913 483.39 160.871 476.556 160.871C468.268 160.871 461.82 158.753 457.212 154.516C452.605 150.28 450.301 144.45 450.301 137.028C450.301 131.926 451.306 127.426 453.316 123.53C455.357 119.633 458.357 116.587 462.315 114.392C466.304 112.165 470.696 111.052 475.489 111.052C480.406 111.052 484.612 112.011 488.106 113.928C491.601 115.845 494.245 118.536 496.038 121.999C497.863 125.463 498.775 129.514 498.775 134.152V141.574H469.412ZM481.287 131.23C481.287 125.756 479.323 123.02 475.396 123.02C473.757 123.02 472.381 123.777 471.268 125.293C470.154 126.777 469.505 128.756 469.319 131.23H481.287ZM544.208 129.143C543.466 128.803 542.461 128.493 541.193 128.215C539.925 127.937 538.874 127.797 538.039 127.797C531.514 127.797 528.251 131.57 528.251 139.116V159.712H508.49V112.212H528.251V120.561H528.437C529.643 117.561 531.359 115.289 533.585 113.742C535.812 112.165 538.41 111.377 541.378 111.377C542.461 111.377 543.404 111.562 544.208 111.933V129.143ZM606.387 134.524C606.387 139.719 605.505 144.311 603.743 148.3C601.98 152.29 599.49 155.382 596.274 157.578C593.058 159.773 589.44 160.871 585.42 160.871C579.853 160.871 575.632 158.846 572.756 154.795H572.571V181.56H552.81V112.212H572.571V118.659H572.756C574.333 116.278 576.374 114.423 578.879 113.093C581.384 111.732 584.229 111.052 587.414 111.052C593.538 111.052 598.223 113.093 601.47 117.175C604.748 121.257 606.387 127.04 606.387 134.524ZM586.348 135.127C586.348 132.127 585.76 129.777 584.585 128.076C583.441 126.375 581.663 125.525 579.25 125.525C577.148 125.525 575.447 126.421 574.148 128.215C572.849 130.009 572.2 132.467 572.2 135.59V136.518C572.2 139.518 572.756 141.915 573.87 143.708C574.983 145.502 576.653 146.399 578.879 146.399C581.26 146.399 583.1 145.424 584.399 143.476C585.698 141.497 586.348 138.714 586.348 135.127ZM643.053 159.712V152.475H642.867C639.713 158.073 634.888 160.871 628.394 160.871C623.91 160.871 620.4 159.541 617.865 156.882C615.329 154.222 614.061 150.666 614.061 146.213C614.061 136.874 619.797 131.462 631.27 129.978L643.053 128.447C643.053 126.901 642.357 125.633 640.965 124.643C639.574 123.654 637.703 123.159 635.352 123.159C630.033 123.159 624.421 124.674 618.514 127.705V114.856C621.081 113.742 624.297 112.83 628.162 112.119C632.028 111.408 635.337 111.052 638.089 111.052C646.16 111.052 652.005 112.784 655.623 116.247C659.272 119.68 661.097 125.432 661.097 133.503V159.712H643.053ZM631.363 143.569C631.363 144.868 631.765 145.935 632.569 146.77C633.404 147.605 634.579 148.022 636.095 148.022C638.166 148.022 639.836 147.249 641.104 145.703C642.403 144.157 643.053 142.177 643.053 139.765V137.956L636.373 138.884C633.033 139.441 631.363 141.002 631.363 143.569ZM706.344 159.062C705.448 159.495 703.979 159.897 701.938 160.268C699.897 160.67 697.438 160.871 694.562 160.871C689.058 160.871 684.744 159.356 681.62 156.325C678.528 153.295 676.982 148.981 676.982 143.383V125.896H669.513V112.212H676.982V102.888L696.464 97.507V112.212H706.344V125.896H696.464V140.136C696.464 144.311 698.119 146.399 701.427 146.399C702.974 146.399 704.613 146.058 706.344 145.378V159.062ZM745.979 159.712V132.622C745.979 127.89 744.17 125.525 740.552 125.525C738.789 125.525 737.444 126.205 736.516 127.566C735.588 128.895 735.125 130.612 735.125 132.714V159.712H715.364V89.3893H735.125V118.659H735.31C737.011 116.216 739.067 114.345 741.48 113.047C743.923 111.717 746.536 111.052 749.319 111.052C754.452 111.052 758.364 112.706 761.055 116.015C763.745 119.293 765.09 124.133 765.09 130.534V159.712H745.979Z" fill="white"/>
<path d="M294.035 157.902L294.374 158.843L295.035 158.606V157.902H294.035ZM256.647 156.836L256.179 157.719L256.183 157.721L256.647 156.836ZM244.865 145.285L243.984 145.758L243.988 145.765L244.865 145.285ZM258.225 96.5792L258.697 97.4605L258.701 97.4584L258.225 96.5792ZM294.035 94.1671H295.035V93.3928L294.286 93.199L294.035 94.1671ZM294.035 112.675L293.521 113.533L295.035 114.442V112.675H294.035ZM266.713 113.835L266.01 113.124L266.006 113.128L266.713 113.835ZM266.713 139.162L266.01 139.873L266.017 139.88L266.713 139.162ZM294.035 140.044H295.035V138.426L293.588 139.149L294.035 140.044ZM293.697 156.961C288.323 158.894 282.086 159.871 274.97 159.871V161.871C282.265 161.871 288.739 160.87 294.374 158.843L293.697 156.961ZM274.97 159.871C268.015 159.871 262.074 158.55 257.112 155.95L256.183 157.721C261.488 160.502 267.762 161.871 274.97 161.871V159.871ZM257.116 155.952C252.151 153.32 248.368 149.608 245.743 144.806L243.988 145.765C246.805 150.92 250.877 154.908 256.179 157.719L257.116 155.952ZM245.746 144.812C243.145 139.968 241.83 134.368 241.83 127.983H239.83C239.83 134.649 241.205 140.583 243.984 145.758L245.746 144.812ZM241.83 127.983C241.83 121.112 243.311 115.035 246.25 109.727L244.501 108.758C241.378 114.398 239.83 120.815 239.83 127.983H241.83ZM246.25 109.727C249.187 104.422 253.33 100.339 258.697 97.4605L257.752 95.698C252.048 98.7572 247.625 103.116 244.501 108.758L246.25 109.727ZM258.701 97.4584C264.07 94.5488 270.273 93.0797 277.336 93.0797V91.0797C269.988 91.0797 263.45 92.6103 257.748 95.7L258.701 97.4584ZM277.336 93.0797C283.006 93.0797 288.489 93.7655 293.785 95.1353L294.286 93.199C288.82 91.7855 283.169 91.0797 277.336 91.0797V93.0797ZM293.035 94.1671V112.675H295.035V94.1671H293.035ZM294.55 111.818C292.59 110.642 290.281 109.743 287.636 109.106L287.168 111.05C289.657 111.65 291.769 112.482 293.521 113.533L294.55 111.818ZM287.636 109.106C284.993 108.469 282.317 108.15 279.609 108.15V110.15C282.158 110.15 284.677 110.45 287.168 111.05L287.636 109.106ZM279.609 108.15C273.966 108.15 269.392 109.776 266.01 113.125L267.417 114.546C270.343 111.648 274.366 110.15 279.609 110.15V108.15ZM266.006 113.128C262.657 116.477 261.028 120.99 261.028 126.545H263.028C263.028 121.401 264.523 117.44 267.42 114.542L266.006 113.128ZM261.028 126.545C261.028 132.071 262.658 136.554 266.01 139.873L267.417 138.452C264.522 135.585 263.028 131.657 263.028 126.545H261.028ZM266.017 139.88C269.393 143.157 273.868 144.755 279.331 144.755V142.755C274.279 142.755 270.342 141.29 267.41 138.445L266.017 139.88ZM279.331 144.755C284.361 144.755 289.415 143.472 294.482 140.938L293.588 139.149C288.759 141.563 284.01 142.755 279.331 142.755V144.755ZM293.035 140.044V157.902H295.035V140.044H293.035ZM305.42 159.712H304.42V160.712H305.42V159.712ZM305.42 89.3893V88.3893H304.42V89.3893H305.42ZM325.181 89.3893H326.181V88.3893H325.181V89.3893ZM325.181 159.712V160.712H326.181V159.712H325.181ZM306.42 159.712V89.3893H304.42V159.712H306.42ZM305.42 90.3893H325.181V88.3893H305.42V90.3893ZM324.181 89.3893V159.712H326.181V89.3893H324.181ZM325.181 158.712H305.42V160.712H325.181V158.712ZM354.611 141.574V140.574H353.43L353.624 141.739L354.611 141.574ZM358.136 146.399L357.631 147.262L357.641 147.268L358.136 146.399ZM379.196 145.471H380.196V143.954L378.802 144.552L379.196 145.471ZM379.196 157.995L379.567 158.924L380.196 158.672V157.995H379.196ZM338.514 123.53L337.629 123.066L337.626 123.071L338.514 123.53ZM347.513 114.392L347.999 115.266L348.001 115.265L347.513 114.392ZM373.304 113.928L373.786 113.051L373.304 113.928ZM381.237 121.999L380.349 122.459L380.352 122.465L381.237 121.999ZM383.973 141.574V142.574H384.973V141.574H383.973ZM366.486 131.23V132.23H367.486V131.23H366.486ZM356.466 125.293L357.266 125.893L357.272 125.885L356.466 125.293ZM354.518 131.23L353.521 131.155L353.44 132.23H354.518V131.23ZM353.624 141.739C354.02 144.112 355.401 145.958 357.631 147.262L358.641 145.535C356.851 144.489 355.882 143.119 355.597 141.41L353.624 141.739ZM357.641 147.268C359.853 148.527 362.702 149.115 366.115 149.115V147.115C362.909 147.115 360.439 146.559 358.631 145.529L357.641 147.268ZM366.115 149.115C370.854 149.115 375.348 148.208 379.59 146.39L378.802 144.552C374.817 146.259 370.591 147.115 366.115 147.115V149.115ZM378.196 145.471V157.995H380.196V145.471H378.196ZM378.824 157.067C374.18 158.924 368.5 159.871 361.754 159.871V161.871C368.677 161.871 374.624 160.901 379.567 158.924L378.824 157.067ZM361.754 159.871C353.634 159.871 347.458 157.798 343.088 153.78L341.734 155.252C346.58 159.708 353.299 161.871 361.754 161.871V159.871ZM343.088 153.78C338.724 149.768 336.499 144.227 336.499 137.028H334.499C334.499 144.674 336.882 150.791 341.734 155.252L343.088 153.78ZM336.499 137.028C336.499 132.059 337.477 127.722 339.403 123.988L337.626 123.071C335.531 127.131 334.499 131.793 334.499 137.028H336.499ZM339.4 123.994C341.348 120.276 344.206 117.37 347.999 115.266L347.028 113.517C342.905 115.805 339.763 118.991 337.629 123.066L339.4 123.994ZM348.001 115.265C351.834 113.126 356.056 112.052 360.687 112.052V110.052C355.732 110.052 351.172 111.205 347.026 113.519L348.001 115.265ZM360.687 112.052C365.475 112.052 369.507 112.985 372.823 114.805L373.786 113.051C370.113 111.036 365.734 110.052 360.687 110.052V112.052ZM372.823 114.805C376.148 116.629 378.648 119.176 380.349 122.459L382.125 121.539C380.238 117.895 377.45 115.062 373.786 113.051L372.823 114.805ZM380.352 122.465C382.088 125.761 382.973 129.646 382.973 134.152H384.973C384.973 129.381 384.034 125.165 382.121 121.533L380.352 122.465ZM382.973 134.152V141.574H384.973V134.152H382.973ZM383.973 140.574H354.611V142.574H383.973V140.574ZM367.486 131.23C367.486 128.404 366.984 126.104 365.825 124.489C364.623 122.813 362.819 122.02 360.595 122.02V124.02C362.297 124.02 363.439 124.595 364.2 125.655C365.005 126.777 365.486 128.583 365.486 131.23H367.486ZM360.595 122.02C358.587 122.02 356.93 122.972 355.66 124.701L357.272 125.885C358.229 124.583 359.324 124.02 360.595 124.02V122.02ZM355.666 124.693C354.406 126.373 353.716 128.554 353.521 131.155L355.515 131.305C355.691 128.959 356.3 127.181 357.266 125.893L355.666 124.693ZM354.518 132.23H366.486V130.23H354.518V132.23ZM428.293 159.712V160.712H429.004L429.238 160.04L428.293 159.712ZM404.821 159.712L403.873 160.028L404.101 160.712H404.821V159.712ZM388.957 112.212V111.212H387.569L388.009 112.528L388.957 112.212ZM409.553 112.212L410.529 111.993L410.354 111.212H409.553V112.212ZM415.351 138.142L416.327 137.925L416.327 137.924L415.351 138.142ZM416.882 147.558L415.883 147.602L415.925 148.558H416.882V147.558ZM417.16 147.558V148.558H418.065L418.155 147.658L417.16 147.558ZM417.392 145.656L416.41 145.469L416.406 145.492L416.402 145.515L417.392 145.656ZM424.304 112.212V111.212H423.49L423.325 112.009L424.304 112.212ZM444.807 112.212L445.751 112.54L446.213 111.212H444.807V112.212ZM428.293 158.712H404.821V160.712H428.293V158.712ZM405.77 159.395L389.906 111.895L388.009 112.528L403.873 160.028L405.77 159.395ZM388.957 113.212H409.553V111.212H388.957V113.212ZM408.577 112.43L414.375 138.36L416.327 137.924L410.529 111.993L408.577 112.43ZM414.375 138.359C415.3 142.522 415.794 145.591 415.883 147.602L417.881 147.514C417.784 145.32 417.258 142.111 416.327 137.925L414.375 138.359ZM416.882 148.558H417.16V146.558H416.882V148.558ZM418.155 147.658C418.216 147.054 418.291 146.434 418.382 145.798L416.402 145.515C416.308 146.178 416.229 146.825 416.165 147.459L418.155 147.658ZM418.375 145.843C418.496 145.205 420.797 134.071 425.283 112.414L423.325 112.009C418.843 133.647 416.536 144.809 416.41 145.469L418.375 145.843ZM424.304 113.212H444.807V111.212H424.304V113.212ZM443.862 111.883L427.349 159.383L429.238 160.04L445.751 112.54L443.862 111.883ZM469.412 141.574V140.574H468.232L468.426 141.739L469.412 141.574ZM472.938 146.399L472.433 147.262L472.443 147.268L472.938 146.399ZM493.997 145.471H494.997V143.954L493.603 144.552L493.997 145.471ZM493.997 157.995L494.369 158.924L494.997 158.672V157.995H493.997ZM453.316 123.53L452.43 123.066L452.427 123.071L453.316 123.53ZM462.315 114.392L462.8 115.266L462.802 115.265L462.315 114.392ZM488.106 113.928L488.587 113.051L488.106 113.928ZM496.038 121.999L495.15 122.459L495.153 122.465L496.038 121.999ZM498.775 141.574V142.574H499.775V141.574H498.775ZM481.287 131.23V132.23H482.287V131.23H481.287ZM471.268 125.293L472.068 125.893L472.074 125.885L471.268 125.293ZM469.319 131.23L468.322 131.155L468.242 132.23H469.319V131.23ZM468.426 141.739C468.821 144.112 470.203 145.958 472.433 147.262L473.442 145.535C471.652 144.489 470.683 143.119 470.399 141.41L468.426 141.739ZM472.443 147.268C474.655 148.527 477.504 149.115 480.916 149.115V147.115C477.71 147.115 475.24 146.559 473.432 145.529L472.443 147.268ZM480.916 149.115C485.655 149.115 490.15 148.208 494.391 146.39L493.603 144.552C489.618 146.259 485.393 147.115 480.916 147.115V149.115ZM492.997 145.471V157.995H494.997V145.471H492.997ZM493.626 157.067C488.982 158.924 483.302 159.871 476.556 159.871V161.871C483.478 161.871 489.426 160.901 494.369 158.924L493.626 157.067ZM476.556 159.871C468.436 159.871 462.259 157.798 457.889 153.78L456.536 155.252C461.381 159.708 468.1 161.871 476.556 161.871V159.871ZM457.889 153.78C453.526 149.768 451.301 144.227 451.301 137.028H449.301C449.301 144.674 451.684 150.791 456.536 155.252L457.889 153.78ZM451.301 137.028C451.301 132.059 452.279 127.722 454.205 123.988L452.427 123.071C450.333 127.131 449.301 131.793 449.301 137.028H451.301ZM454.202 123.994C456.149 120.276 459.007 117.37 462.8 115.266L461.83 113.517C457.706 115.805 454.565 118.991 452.43 123.066L454.202 123.994ZM462.802 115.265C466.635 113.126 470.857 112.052 475.489 112.052V110.052C470.534 110.052 465.973 111.205 461.828 113.519L462.802 115.265ZM475.489 112.052C480.277 112.052 484.309 112.985 487.625 114.805L488.587 113.051C484.915 111.036 480.535 110.052 475.489 110.052V112.052ZM487.625 114.805C490.95 116.629 493.45 119.176 495.15 122.459L496.926 121.539C495.039 117.895 492.252 115.062 488.587 113.051L487.625 114.805ZM495.153 122.465C496.889 125.761 497.775 129.646 497.775 134.152H499.775C499.775 129.381 498.836 125.165 496.923 121.533L495.153 122.465ZM497.775 134.152V141.574H499.775V134.152H497.775ZM498.775 140.574H469.412V142.574H498.775V140.574ZM482.287 131.23C482.287 128.404 481.786 126.104 480.627 124.489C479.424 122.813 477.621 122.02 475.396 122.02V124.02C477.099 124.02 478.241 124.595 479.002 125.655C479.807 126.777 480.287 128.583 480.287 131.23H482.287ZM475.396 122.02C473.389 122.02 471.732 122.972 470.462 124.701L472.074 125.885C473.03 124.583 474.125 124.02 475.396 124.02V122.02ZM470.468 124.693C469.207 126.373 468.517 128.554 468.322 131.155L470.317 131.305C470.493 128.959 471.101 127.181 472.068 125.893L470.468 124.693ZM469.319 132.23H481.287V130.23H469.319V132.23ZM544.208 129.143L543.791 130.052L545.208 130.701V129.143H544.208ZM528.251 159.712V160.712H529.251V159.712H528.251ZM508.49 159.712H507.49V160.712H508.49V159.712ZM508.49 112.212V111.212H507.49V112.212H508.49ZM528.251 112.212H529.251V111.212H528.251V112.212ZM528.251 120.561H527.251V121.561H528.251V120.561ZM528.437 120.561V121.561H529.112L529.364 120.934L528.437 120.561ZM533.585 113.742L534.156 114.564L534.163 114.558L533.585 113.742ZM544.208 111.933H545.208V111.293L544.627 111.025L544.208 111.933ZM544.625 128.234C543.791 127.852 542.709 127.524 541.407 127.238L540.978 129.192C542.212 129.463 543.14 129.753 543.791 130.052L544.625 128.234ZM541.407 127.238C540.103 126.952 538.974 126.797 538.039 126.797V128.797C538.773 128.797 539.747 128.921 540.978 129.192L541.407 127.238ZM538.039 126.797C534.581 126.797 531.817 127.804 529.941 129.973C528.09 132.114 527.251 135.222 527.251 139.116H529.251C529.251 135.464 530.043 132.913 531.454 131.281C532.841 129.678 534.971 128.797 538.039 128.797V126.797ZM527.251 139.116V159.712H529.251V139.116H527.251ZM528.251 158.712H508.49V160.712H528.251V158.712ZM509.49 159.712V112.212H507.49V159.712H509.49ZM508.49 113.212H528.251V111.212H508.49V113.212ZM527.251 112.212V120.561H529.251V112.212H527.251ZM528.251 121.561H528.437V119.561H528.251V121.561ZM529.364 120.934C530.512 118.08 532.118 115.979 534.156 114.564L533.015 112.921C530.599 114.598 528.773 117.043 527.509 120.188L529.364 120.934ZM534.163 114.558C536.206 113.111 538.598 112.377 541.378 112.377V110.377C538.222 110.377 535.418 111.219 533.007 112.926L534.163 114.558ZM541.378 112.377C542.348 112.377 543.142 112.543 543.789 112.841L544.627 111.025C543.666 110.582 542.574 110.377 541.378 110.377V112.377ZM543.208 111.933V129.143H545.208V111.933H543.208ZM596.274 157.578L596.838 158.404L596.274 157.578ZM572.756 154.795L573.572 154.216L573.273 153.795H572.756V154.795ZM572.571 154.795V153.795H571.571V154.795H572.571ZM572.571 181.56V182.56H573.571V181.56H572.571ZM552.81 181.56H551.81V182.56H552.81V181.56ZM552.81 112.212V111.212H551.81V112.212H552.81ZM572.571 112.212H573.571V111.212H572.571V112.212ZM572.571 118.659H571.571V119.659H572.571V118.659ZM572.756 118.659V119.659H573.293L573.59 119.212L572.756 118.659ZM578.879 113.093L579.348 113.976L579.357 113.972L578.879 113.093ZM601.47 117.175L600.687 117.797L600.69 117.801L601.47 117.175ZM584.585 128.076L583.755 128.634L583.762 128.644L584.585 128.076ZM584.399 143.476L585.231 144.031L585.235 144.025L584.399 143.476ZM605.387 134.524C605.387 139.606 604.525 144.056 602.828 147.896L604.657 148.705C606.486 144.566 607.387 139.832 607.387 134.524H605.387ZM602.828 147.896C601.131 151.736 598.755 154.674 595.71 156.752L596.838 158.404C600.226 156.091 602.829 152.843 604.657 148.705L602.828 147.896ZM595.71 156.752C592.666 158.83 589.246 159.871 585.42 159.871V161.871C589.634 161.871 593.45 160.717 596.838 158.404L595.71 156.752ZM585.42 159.871C580.132 159.871 576.235 157.968 573.572 154.216L571.941 155.373C575.029 159.724 579.575 161.871 585.42 161.871V159.871ZM572.756 153.795H572.571V155.795H572.756V153.795ZM571.571 154.795V181.56H573.571V154.795H571.571ZM572.571 180.56H552.81V182.56H572.571V180.56ZM553.81 181.56V112.212H551.81V181.56H553.81ZM552.81 113.212H572.571V111.212H552.81V113.212ZM571.571 112.212V118.659H573.571V112.212H571.571ZM572.571 119.659H572.756V117.659H572.571V119.659ZM573.59 119.212C575.076 116.968 576.992 115.227 579.348 113.976L578.41 112.21C575.757 113.618 573.591 115.588 571.923 118.107L573.59 119.212ZM579.357 113.972C581.698 112.7 584.376 112.052 587.414 112.052V110.052C584.082 110.052 581.07 110.765 578.402 112.214L579.357 113.972ZM587.414 112.052C593.292 112.052 597.664 113.997 600.687 117.797L602.252 116.552C598.781 112.189 593.783 110.052 587.414 110.052V112.052ZM600.69 117.801C603.775 121.643 605.387 127.172 605.387 134.524H607.387C607.387 126.908 605.72 120.871 602.249 116.549L600.69 117.801ZM587.348 135.127C587.348 132.011 586.739 129.435 585.408 127.507L583.762 128.644C584.781 130.118 585.348 132.243 585.348 135.127H587.348ZM585.415 127.518C584.05 125.489 581.927 124.525 579.25 124.525V126.525C581.398 126.525 582.832 127.261 583.755 128.634L585.415 127.518ZM579.25 124.525C576.807 124.525 574.813 125.591 573.338 127.628L574.958 128.801C576.08 127.251 577.488 126.525 579.25 126.525V124.525ZM573.338 127.628C571.874 129.65 571.2 132.34 571.2 135.59H573.2C573.2 132.594 573.824 130.367 574.958 128.801L573.338 127.628ZM571.2 135.59V136.518H573.2V135.59H571.2ZM571.2 136.518C571.2 139.63 571.775 142.23 573.02 144.235L574.719 143.181C573.737 141.599 573.2 139.406 573.2 136.518H571.2ZM573.02 144.235C574.327 146.342 576.33 147.399 578.879 147.399V145.399C576.976 145.399 575.638 144.662 574.719 143.181L573.02 144.235ZM578.879 147.399C581.588 147.399 583.743 146.263 585.231 144.031L583.567 142.921C582.458 144.586 580.933 145.399 578.879 145.399V147.399ZM585.235 144.025C586.683 141.819 587.348 138.815 587.348 135.127H585.348C585.348 138.613 584.713 141.175 583.563 142.928L585.235 144.025ZM643.053 159.712H642.053V160.712H643.053V159.712ZM643.053 152.475H644.053V151.475H643.053V152.475ZM642.867 152.475V151.475H642.283L641.996 151.984L642.867 152.475ZM631.27 129.978L631.399 130.969L631.399 130.969L631.27 129.978ZM643.053 128.447L643.181 129.439L644.053 129.325V128.447H643.053ZM618.514 127.705H617.514V129.342L618.97 128.594L618.514 127.705ZM618.514 114.856L618.116 113.938L617.514 114.199V114.856H618.514ZM628.162 112.119L627.981 111.135L628.162 112.119ZM655.623 116.247L654.932 116.97L654.938 116.976L655.623 116.247ZM661.097 159.712V160.712H662.097V159.712H661.097ZM632.569 146.77L631.849 147.463L631.855 147.47L631.862 147.477L632.569 146.77ZM641.104 145.703L640.339 145.06L640.331 145.069L641.104 145.703ZM643.053 137.956H644.053V136.808L642.915 136.966L643.053 137.956ZM636.373 138.884L636.235 137.893L636.222 137.895L636.208 137.898L636.373 138.884ZM644.053 159.712V152.475H642.053V159.712H644.053ZM643.053 151.475H642.867V153.475H643.053V151.475ZM641.996 151.984C639.021 157.263 634.532 159.871 628.394 159.871V161.871C635.245 161.871 640.404 158.882 643.738 152.966L641.996 151.984ZM628.394 159.871C624.119 159.871 620.895 158.611 618.588 156.192L617.141 157.572C619.906 160.472 623.701 161.871 628.394 161.871V159.871ZM618.588 156.192C616.266 153.756 615.061 150.467 615.061 146.213H613.061C613.061 150.865 614.392 154.689 617.141 157.572L618.588 156.192ZM615.061 146.213C615.061 141.764 616.418 138.359 619.049 135.877C621.708 133.369 625.778 131.697 631.399 130.969L631.142 128.986C625.29 129.743 620.755 131.518 617.677 134.422C614.572 137.352 613.061 141.323 613.061 146.213H615.061ZM631.399 130.969L643.181 129.439L642.924 127.455L631.141 128.986L631.399 130.969ZM644.053 128.447C644.053 126.54 643.168 124.983 641.545 123.828L640.386 125.458C641.545 126.283 642.053 127.262 642.053 128.447H644.053ZM641.545 123.828C639.931 122.681 637.834 122.159 635.352 122.159V124.159C637.571 124.159 639.216 124.627 640.386 125.458L641.545 123.828ZM635.352 122.159C629.84 122.159 624.071 123.73 618.057 126.815L618.97 128.594C624.77 125.619 630.227 124.159 635.352 124.159V122.159ZM619.514 127.705V114.856H617.514V127.705H619.514ZM618.912 115.773C621.387 114.699 624.525 113.805 628.343 113.102L627.981 111.135C624.069 111.855 620.774 112.785 618.116 113.938L618.912 115.773ZM628.343 113.102C632.172 112.398 635.417 112.052 638.089 112.052V110.052C635.257 110.052 631.884 110.417 627.981 111.135L628.343 113.102ZM638.089 112.052C646.053 112.052 651.586 113.766 654.932 116.97L656.315 115.525C652.425 111.801 646.268 110.052 638.089 110.052V112.052ZM654.938 116.976C658.292 120.131 660.097 125.544 660.097 133.503H662.097C662.097 125.319 660.253 119.229 656.309 115.519L654.938 116.976ZM660.097 133.503V159.712H662.097V133.503H660.097ZM661.097 158.712H643.053V160.712H661.097V158.712ZM630.363 143.569C630.363 145.093 630.843 146.419 631.849 147.463L633.289 146.076C632.687 145.45 632.363 144.643 632.363 143.569H630.363ZM631.862 147.477C632.934 148.548 634.393 149.022 636.095 149.022V147.022C634.766 147.022 633.875 146.661 633.276 146.063L631.862 147.477ZM636.095 149.022C638.454 149.022 640.412 148.124 641.878 146.337L640.331 145.069C639.261 146.374 637.879 147.022 636.095 147.022V149.022ZM641.87 146.346C643.348 144.586 644.053 142.365 644.053 139.765H642.053C642.053 141.99 641.458 143.727 640.339 145.06L641.87 146.346ZM644.053 139.765V137.956H642.053V139.765H644.053ZM642.915 136.966L636.235 137.893L636.51 139.874L643.19 138.947L642.915 136.966ZM636.208 137.898C634.432 138.194 632.965 138.777 631.932 139.742C630.87 140.736 630.363 142.046 630.363 143.569H632.363C632.363 142.525 632.692 141.771 633.299 141.203C633.936 140.607 634.974 140.131 636.537 139.87L636.208 137.898ZM706.344 159.062L706.779 159.963L707.344 159.69V159.062H706.344ZM701.938 160.268L701.759 159.284L701.752 159.286L701.744 159.287L701.938 160.268ZM681.62 156.325L680.92 157.04L680.924 157.043L681.62 156.325ZM676.982 125.896H677.982V124.896H676.982V125.896ZM669.513 125.896H668.513V126.896H669.513V125.896ZM669.513 112.212V111.212H668.513V112.212H669.513ZM676.982 112.212V113.212H677.982V112.212H676.982ZM676.982 102.888L676.715 101.924L675.982 102.127V102.888H676.982ZM696.464 97.507H697.464V96.1933L696.198 96.543L696.464 97.507ZM696.464 112.212H695.464V113.212H696.464V112.212ZM706.344 112.212H707.344V111.212H706.344V112.212ZM706.344 125.896V126.896H707.344V125.896H706.344ZM696.464 125.896V124.896H695.464V125.896H696.464ZM706.344 145.378H707.344V143.911L705.979 144.447L706.344 145.378ZM705.91 158.162C705.142 158.532 703.785 158.916 701.759 159.284L702.117 161.252C704.172 160.878 705.754 160.458 706.779 159.963L705.91 158.162ZM701.744 159.287C699.786 159.673 697.396 159.871 694.562 159.871V161.871C697.48 161.871 700.007 161.668 702.131 161.249L701.744 159.287ZM694.562 159.871C689.246 159.871 685.207 158.413 682.317 155.608L680.924 157.043C684.28 160.299 688.87 161.871 694.562 161.871V159.871ZM682.32 155.611C679.471 152.819 677.982 148.794 677.982 143.383H675.982C675.982 149.167 677.584 153.77 680.92 157.04L682.32 155.611ZM677.982 143.383V125.896H675.982V143.383H677.982ZM676.982 124.896H669.513V126.896H676.982V124.896ZM670.513 125.896V112.212H668.513V125.896H670.513ZM669.513 113.212H676.982V111.212H669.513V113.212ZM677.982 112.212V102.888H675.982V112.212H677.982ZM677.248 103.852L696.73 98.4709L696.198 96.543L676.715 101.924L677.248 103.852ZM695.464 97.507V112.212H697.464V97.507H695.464ZM696.464 113.212H706.344V111.212H696.464V113.212ZM705.344 112.212V125.896H707.344V112.212H705.344ZM706.344 124.896H696.464V126.896H706.344V124.896ZM695.464 125.896V140.136H697.464V125.896H695.464ZM695.464 140.136C695.464 142.329 695.894 144.158 696.921 145.454C697.984 146.794 699.549 147.399 701.427 147.399V145.399C699.997 145.399 699.081 144.959 698.489 144.212C697.861 143.42 697.464 142.119 697.464 140.136H695.464ZM701.427 147.399C703.121 147.399 704.885 147.026 706.71 146.309L705.979 144.447C704.34 145.091 702.826 145.399 701.427 145.399V147.399ZM705.344 145.378V159.062H707.344V145.378H705.344ZM745.979 159.712H744.979V160.712H745.979V159.712ZM736.516 127.566L737.336 128.138L737.342 128.129L736.516 127.566ZM735.125 159.712V160.712H736.125V159.712H735.125ZM715.364 159.712H714.364V160.712H715.364V159.712ZM715.364 89.3893V88.3893H714.364V89.3893H715.364ZM735.125 89.3893H736.125V88.3893H735.125V89.3893ZM735.125 118.659H734.125V119.659H735.125V118.659ZM735.31 118.659V119.659H735.832L736.131 119.231L735.31 118.659ZM741.48 113.047L741.954 113.927L741.958 113.925L741.48 113.047ZM761.055 116.015L760.279 116.646L760.282 116.65L761.055 116.015ZM765.09 159.712V160.712H766.09V159.712H765.09ZM746.979 159.712V132.622H744.979V159.712H746.979ZM746.979 132.622C746.979 130.157 746.513 128.125 745.417 126.691C744.282 125.207 742.598 124.525 740.552 124.525V126.525C742.124 126.525 743.154 127.025 743.828 127.906C744.541 128.839 744.979 130.355 744.979 132.622H746.979ZM740.552 124.525C738.486 124.525 736.819 125.346 735.69 127.002L737.342 128.129C738.069 127.063 739.092 126.525 740.552 126.525V124.525ZM735.696 126.993C734.621 128.534 734.125 130.467 734.125 132.714H736.125C736.125 130.756 736.556 129.256 737.336 128.138L735.696 126.993ZM734.125 132.714V159.712H736.125V132.714H734.125ZM735.125 158.712H715.364V160.712H735.125V158.712ZM716.364 159.712V89.3893H714.364V159.712H716.364ZM715.364 90.3893H735.125V88.3893H715.364V90.3893ZM734.125 89.3893V118.659H736.125V89.3893H734.125ZM735.125 119.659H735.31V117.659H735.125V119.659ZM736.131 119.231C737.75 116.905 739.691 115.145 741.954 113.927L741.005 112.166C738.443 113.546 736.272 115.527 734.489 118.088L736.131 119.231ZM741.958 113.925C744.254 112.675 746.703 112.052 749.319 112.052V110.052C746.369 110.052 743.591 110.759 741.002 112.168L741.958 113.925ZM749.319 112.052C754.219 112.052 757.817 113.619 760.279 116.646L761.831 115.384C758.911 111.794 754.686 110.052 749.319 110.052V112.052ZM760.282 116.65C762.767 119.678 764.09 124.251 764.09 130.534H766.09C766.09 124.015 764.723 118.909 761.828 115.381L760.282 116.65ZM764.09 130.534V159.712H766.09V130.534H764.09ZM765.09 158.712H745.979V160.712H765.09V158.712Z" fill="white" mask="url(#path-5-outside-1_13_6)"/>
</svg>
